<?xml version="1.0" standalone="no"?>
<!DOCTYPE svg PUBLIC "-//W3C//DTD SVG 20010904//EN"
 "http://www.w3.org/TR/2001/REC-SVG-20010904/DTD/svg10.dtd">
<svg version="1.0" xmlns="http://www.w3.org/2000/svg"
 width="260.000000pt" height="260.000000pt" viewBox="0 0 260.000000 260.000000"
 preserveAspectRatio="xMidYMid meet">
<metadata>
Created by potrace 1.11, written by Peter Selinger 2001-2013
</metadata>
<g transform="translate(0.000000,260.000000) scale(0.100000,-0.100000)"
fill="#000000" stroke="none">
<path d="M0 1300 l0 -1300 1300 0 1300 0 0 1300 0 1300 -1300 0 -1300 0 0
-1300z m1120 15 c55 -137 100 -253 100 -257 0 -5 -22 -8 -50 -8 l-49 0 -18 50
-18 50 -87 0 -87 0 -18 -50 -18 -50 -52 0 -53 0 13 33 c8 17 54 135 103 260
82 210 91 228 112 225 20 -3 35 -35 122 -253z m577 236 c82 -38 99 -141 31
-190 -19 -13 -18 -14 11 -32 45 -27 64 -72 59 -136 -9 -103 -76 -142 -240
-143 l-108 0 0 260 0 260 103 0 c78 0 112 -5 144 -19z"/>
<path d="M970 1327 c-13 -45 -25 -88 -28 -94 -3 -10 12 -13 56 -13 l60 0 -29
92 c-16 50 -30 93 -32 94 -2 2 -14 -33 -27 -79z"/>
<path d="M1550 1430 l0 -63 47 6 c32 3 53 12 65 27 37 45 13 81 -60 88 l-52 5
0 -63z"/>
<path d="M1550 1215 l0 -88 56 6 c72 7 94 27 94 82 0 55 -22 75 -94 82 l-56 6
0 -88z"/>
</g>
</svg>
